<svg width="39" height="39" viewBox="0 0 39 39" fill="none" xmlns="http://www.w3.org/2000/svg">
<path d="M11.7 31.2C9.555 31.2 7.8195 32.955 7.8195 35.1C7.8195 37.245 9.555 39 11.7 39C13.845 39 15.6 37.245 15.6 35.1C15.6 32.955 13.845 31.2 11.7 31.2ZM0 0V3.9H3.9L10.92 18.7005L8.2875 23.478C7.9755 24.024 7.8 24.6675 7.8 25.35C7.8 27.495 9.555 29.25 11.7 29.25H35.1V25.35H12.519C12.246 25.35 12.0315 25.1355 12.0315 24.8625L12.09 24.6285L13.845 21.45H28.3725C29.835 21.45 31.122 20.6505 31.785 19.4415L38.766 6.786C38.922 6.513 39 6.1815 39 5.85C39 4.7775 38.1225 3.9 37.05 3.9H8.2095L6.3765 0H0ZM31.2 31.2C29.055 31.2 27.3195 32.955 27.3195 35.1C27.3195 37.245 29.055 39 31.2 39C33.345 39 35.1 37.245 35.1 35.1C35.1 32.955 33.345 31.2 31.2 31.2Z" fill="#FF3B2F"/>
</svg>
