<svg width="37" height="38" viewBox="0 0 37 38" fill="none" xmlns="http://www.w3.org/2000/svg">
<path d="M26.9075 20.9C28.2945 20.9 29.515 20.121 30.1438 18.943L36.7643 6.612C37.4486 5.358 36.5609 3.8 35.1554 3.8H7.78561L6.04725 0H0V3.8H3.69863L10.3562 18.221L7.85958 22.857C6.50958 25.403 8.28492 28.5 11.0959 28.5H33.2876V24.7H11.0959L13.1301 20.9H26.9075ZM9.54246 7.6H32.0116L26.9075 17.1H13.9253L9.54246 7.6ZM11.0959 30.4C9.06164 30.4 7.41575 32.11 7.41575 34.2C7.41575 36.29 9.06164 38 11.0959 38C13.1301 38 14.7945 36.29 14.7945 34.2C14.7945 32.11 13.1301 30.4 11.0959 30.4ZM29.589 30.4C27.5548 30.4 25.9089 32.11 25.9089 34.2C25.9089 36.29 27.5548 38 29.589 38C31.6233 38 33.2876 36.29 33.2876 34.2C33.2876 32.11 31.6233 30.4 29.589 30.4Z" fill="white"/>
</svg>
