<svg id="Calque_1" data-name="Calque 1" xmlns="http://www.w3.org/2000/svg" viewBox="0 0 18.88 18.92"><defs><style>.cls-1,.cls-2{fill:#fcfcfc;}.cls-2{fill-rule:evenodd;}</style></defs><path class="cls-1" d="M16,7a1,1,0,1,1,1,1A1,1,0,0,1,16,7Z" transform="translate(-2.56 -2.54)"/><path class="cls-2" d="M12,7.25A4.75,4.75,0,1,0,16.75,12,4.75,4.75,0,0,0,12,7.25ZM8.75,12A3.25,3.25,0,1,1,12,15.25,3.25,3.25,0,0,1,8.75,12Z" transform="translate(-2.56 -2.54)"/><path class="cls-2" d="M17.26,2.83a48.68,48.68,0,0,0-10.52,0A4.4,4.4,0,0,0,2.87,6.67a45.25,45.25,0,0,0,0,10.66,4.4,4.4,0,0,0,3.87,3.84,48.68,48.68,0,0,0,10.52,0,4.4,4.4,0,0,0,3.87-3.84,45.25,45.25,0,0,0,0-10.66A4.4,4.4,0,0,0,17.26,2.83ZM6.91,4.32a46.82,46.82,0,0,1,10.18,0,2.89,2.89,0,0,1,2.55,2.52,44.53,44.53,0,0,1,0,10.32,2.89,2.89,0,0,1-2.55,2.52,46.82,46.82,0,0,1-10.18,0,2.89,2.89,0,0,1-2.55-2.52,44.53,44.53,0,0,1,0-10.32A2.89,2.89,0,0,1,6.91,4.32Z" transform="translate(-2.56 -2.54)"/></svg>