<svg width="29" height="35" viewBox="0 0 29 35" fill="none" xmlns="http://www.w3.org/2000/svg">
<path d="M24.75 7.24999H21.3333C21.3333 3.47457 18.2754 0.416656 14.5 0.416656C10.7246 0.416656 7.66666 3.47457 7.66666 7.24999H4.24999C2.37083 7.24999 0.833328 8.78749 0.833328 10.6667V31.1667C0.833328 33.0458 2.37083 34.5833 4.24999 34.5833H24.75C26.6292 34.5833 28.1667 33.0458 28.1667 31.1667V10.6667C28.1667 8.78749 26.6292 7.24999 24.75 7.24999ZM14.5 3.83332C16.3792 3.83332 17.9167 5.37082 17.9167 7.24999H11.0833C11.0833 5.37082 12.6208 3.83332 14.5 3.83332ZM24.75 31.1667H4.24999V10.6667H7.66666V14.0833C7.66666 15.0229 8.43541 15.7917 9.37499 15.7917C10.3146 15.7917 11.0833 15.0229 11.0833 14.0833V10.6667H17.9167V14.0833C17.9167 15.0229 18.6854 15.7917 19.625 15.7917C20.5646 15.7917 21.3333 15.0229 21.3333 14.0833V10.6667H24.75V31.1667Z" fill="white"/>
</svg>
