<svg width="33" height="41" viewBox="0 0 33 41" fill="none" xmlns="http://www.w3.org/2000/svg">
<path d="M28.75 8.25001H24.6666C24.6666 3.73793 21.012 0.0833435 16.5 0.0833435C11.9879 0.0833435 8.33329 3.73793 8.33329 8.25001H4.24996C2.00413 8.25001 0.166626 10.0875 0.166626 12.3333V36.8333C0.166626 39.0792 2.00413 40.9167 4.24996 40.9167H28.75C30.9958 40.9167 32.8333 39.0792 32.8333 36.8333V12.3333C32.8333 10.0875 30.9958 8.25001 28.75 8.25001ZM12.4166 16.4167C12.4166 17.5396 11.4979 18.4583 10.375 18.4583C9.25204 18.4583 8.33329 17.5396 8.33329 16.4167V12.3333H12.4166V16.4167ZM16.5 4.16668C18.7458 4.16668 20.5833 6.00418 20.5833 8.25001H12.4166C12.4166 6.00418 14.2541 4.16668 16.5 4.16668ZM24.6666 16.4167C24.6666 17.5396 23.7479 18.4583 22.625 18.4583C21.502 18.4583 20.5833 17.5396 20.5833 16.4167V12.3333H24.6666V16.4167Z" fill="#FF3B2F"/>
</svg>
