<svg id="Calque_1" data-name="Calque 1" xmlns="http://www.w3.org/2000/svg" viewBox="0 0 128 128"><defs><style>.cls-1{fill:#fff;}</style></defs><path class="cls-1" d="M129,128H1V0H129ZM18.55,33.21c15,7.93,29,15.2,42.91,22.73,2.74,1.49,4.71,1.23,7.26-.2,12.19-6.83,24.49-13.48,36.74-20.21,1.68-.92,3.3-2,5.77-3.42C95.69,24.78,81,17.84,66.27,11a3.69,3.69,0,0,0-2.76.19C48.88,18.29,34.29,25.48,18.55,33.21ZM60.49,74.8c-2.91,3.64-5.39,6.48-7.58,9.54-2.55,3.55-5.34,3.84-9,1.68-8.43-5-17-9.83-25.48-14.7-1.48-.84-3-1.54-5.09-2.57,0,7,.23,13.2-.09,19.33-.18,3.42,1.25,5,4,6.49,12.69,6.57,25.29,13.31,37.93,20,1.56.81,3.21,1.45,5.25,2.38Zm9,41.7a7.56,7.56,0,0,0,1.69-.38c14.3-7.81,28.6-15.6,42.84-23.5,1-.57,2.33-1.87,2.36-2.87.2-6.73.11-13.46.11-21.13-2.56,1.41-4.13,2.25-5.67,3.13-8.37,4.78-16.77,9.52-25.09,14.39-3.45,2-6.15,1.75-8.58-1.63-2.17-3-4.63-5.81-7.66-9.58Zm49.67-79L71.32,63.75,82.87,78.17l45.51-26.1ZM58.53,63.78C43,55.55,28.18,47.69,13.3,40c-1-.49-3.18-.23-3.74.5C6.78,44.12,4.37,48,1.64,52.13l45.49,26Z" transform="translate(-1 0)"/><path d="M18.55,33.21c15.74-7.73,30.33-14.92,45-22A3.69,3.69,0,0,1,66.27,11c14.73,6.85,29.42,13.79,45,21.12-2.47,1.47-4.09,2.5-5.77,3.42C93.21,42.26,80.91,48.91,68.72,55.74c-2.55,1.43-4.52,1.69-7.26.2C47.59,48.41,33.58,41.14,18.55,33.21Z" transform="translate(-1 0)"/><path d="M60.49,74.8v42.11c-2-.93-3.69-1.57-5.25-2.38-12.64-6.65-25.24-13.39-37.93-20-2.8-1.45-4.23-3.07-4-6.49.32-6.13.09-12.29.09-19.33,2.06,1,3.61,1.73,5.09,2.57C27,76.19,35.49,81,43.92,86c3.65,2.16,6.44,1.87,9-1.68C55.1,81.28,57.58,78.44,60.49,74.8Z" transform="translate(-1 0)"/><path d="M69.51,116.5V74.93c3,3.77,5.49,6.57,7.66,9.58,2.43,3.38,5.13,3.65,8.58,1.63,8.32-4.87,16.72-9.61,25.09-14.39,1.54-.88,3.11-1.72,5.67-3.13,0,7.67.09,14.4-.11,21.13,0,1-1.32,2.3-2.36,2.87-14.24,7.9-28.54,15.69-42.84,23.5A7.56,7.56,0,0,1,69.51,116.5Z" transform="translate(-1 0)"/><path d="M119.18,37.52l9.2,14.55L82.87,78.17,71.32,63.75Z" transform="translate(-1 0)"/><path d="M58.53,63.78,47.13,78.13l-45.49-26c2.73-4.1,5.14-8,7.92-11.64.56-.73,2.79-1,3.74-.5C28.18,47.69,43,55.55,58.53,63.78Z" transform="translate(-1 0)"/></svg>