<svg id="Calque_1" data-name="Calque 1" xmlns="http://www.w3.org/2000/svg" viewBox="0 0 126.74 106.08"><defs><style>.cls-1{fill:#fff;}</style></defs><path class="cls-1" d="M17.55,33.21c15.74-7.73,30.33-14.92,45-22A3.72,3.72,0,0,1,65.27,11c14.73,6.85,29.42,13.79,45,21.12-2.47,1.47-4.09,2.5-5.77,3.42-12.29,6.72-24.59,13.37-36.78,20.2-2.55,1.43-4.52,1.69-7.26.2C46.59,48.41,32.58,41.14,17.55,33.21Z" transform="translate(-0.64 -10.83)"/><path class="cls-1" d="M59.49,74.8v42.11c-2-.93-3.69-1.57-5.25-2.38-12.64-6.65-25.24-13.39-37.93-20-2.8-1.45-4.23-3.07-4-6.49.32-6.13.09-12.29.09-19.33,2.06,1,3.61,1.73,5.09,2.57C26,76.19,34.49,81,42.92,86c3.65,2.16,6.44,1.87,9-1.68C54.1,81.28,56.58,78.44,59.49,74.8Z" transform="translate(-0.64 -10.83)"/><path class="cls-1" d="M68.51,116.5V74.93c3,3.77,5.49,6.57,7.66,9.58,2.43,3.38,5.13,3.65,8.58,1.63,8.32-4.87,16.72-9.61,25.09-14.39,1.54-.88,3.11-1.72,5.67-3.13,0,7.67.09,14.4-.11,21.13,0,1-1.32,2.3-2.36,2.87-14.24,7.9-28.54,15.69-42.84,23.5A7.52,7.52,0,0,1,68.51,116.5Z" transform="translate(-0.64 -10.83)"/><path class="cls-1" d="M118.18,37.52l9.2,14.55L81.87,78.17,70.32,63.75Z" transform="translate(-0.64 -10.83)"/><path class="cls-1" d="M57.53,63.78,46.13,78.13.64,52.13c2.73-4.1,5.14-8,7.92-11.64.56-.73,2.79-1,3.74-.5C27.18,47.69,42,55.55,57.53,63.78Z" transform="translate(-0.64 -10.83)"/></svg>