<?xml version="1.0" encoding="utf-8"?>
<!-- Generator: Adobe Illustrator 26.0.0, SVG Export Plug-In . SVG Version: 6.00 Build 0)  -->
<svg version="1.1" id="Calque_1" xmlns="http://www.w3.org/2000/svg" xmlns:xlink="http://www.w3.org/1999/xlink" x="0px" y="0px"
	 viewBox="0 0 128 128" style="enable-background:new 0 0 128 128;" xml:space="preserve">
<style type="text/css">
	.st0{fill:#FEFEFE;}
	.st1{fill:#FE3B2F;}
</style>
<g>
	<g>
		<path class="st0" d="M128.9,53c0,24,0,47.9,0.1,71.9c0,2.5-0.6,3.1-3.1,3.1c-40.6-0.1-81.2-0.1-121.9,0c-2.5,0-3.1-0.6-3.1-3.1
			C1.1,101,1.1,77,1.1,53c2.8-1.5,4.7,0.6,6.8,1.8c11.6,6.5,23.1,13.1,34.6,19.8c3.2,1.9,5.3,1.7,7.6-1.3c7.5-9.2,7.7-9.3-2.9-14.7
			c-10.9-5.6-21.8-11.4-32.6-17.2c-2.8-1.5-4.2-0.9-5.7,1.5c-1.1,1.9-2.3,3.7-3.6,5.4c-1.1,1.4-1.9,3.3-4.2,2.7
			c0-15.9,0-31.9,0-47.8C1,1,1.2,0,3.9,0c40.7,0.1,81.4,0.1,122.1,0c2.8,0,2.9,1,2.9,3.2c-0.1,15.9,0,31.9,0,47.8
			c-4.1-0.3-4.7-4.2-6.5-6.7c-3.7-5.5-3.6-5.6-9.4-2.5c-11.7,6.3-23.3,12.7-34.9,19.1c-5.5,3-5.6,3.2-1.8,7.8
			c8,9.9,5.6,8.9,16.1,3.1c10.3-5.7,20.5-11.6,30.7-17.5C124.8,53.3,126.6,51.5,128.9,53z"/>
		<path class="st1" d="M128.9,53c-4,0.7-7.1,3.4-10.5,5.3c-10.9,6.1-21.7,12.3-32.4,18.6c-2.5,1.5-4,1.4-5.7-1.1
			c-2.8-4.1-8.6-8.1-8.3-11.8c0.3-3.8,7.6-5.2,11.8-7.6c10.4-5.9,21-11.4,31.4-17.3c3-1.7,4.6-1.9,6.5,1.5c2,3.7,3.9,7.6,7.2,10.4
			C128.9,51.7,128.9,52.4,128.9,53z"/>
		<path class="st1" d="M1.1,51c3.6-2.8,5.3-7,7.8-10.6c1.3-1.9,2.3-2.3,4.3-1.2c14.3,7.7,28.7,15.3,43.1,22.8
			c2.7,1.4,2.4,2.4,0.7,4.3c-3.4,3.8-5.6,10.2-10,11.2c-4.2,0.9-8.6-4-13-6.5c-9.6-5.4-19-10.9-28.6-16.2c-1.4-0.8-2.6-2.2-4.5-1.8
			C1.1,52.4,1.1,51.7,1.1,51z"/>
		<path class="st1" d="M17.7,33.2c15.8-7.8,30.8-15.1,45.8-22.5c1.2-0.6,2.1-0.5,3.3,0c14.8,7.1,29.6,14.2,44.4,21.3
			c0.1,0.1,0.2,0.3,0.4,0.7c-14.8,8.1-29.7,16.2-44.4,24.4c-2,1.1-3.4,0.5-5-0.4C47.6,49,33.1,41.4,17.7,33.2z"/>
		<path class="st1" d="M13.1,67.8c10.6,6.1,20.6,11.5,30.4,17.5c4.1,2.5,6.9,2.2,9.6-1.8c2.2-3.1,4.7-6,7.6-9.7
			c0,14.9,0,29.1,0,43.3c-1.3,0.7-2.2-0.6-3.3-1.2c-13.7-7.2-27.3-14.4-41-21.5c-2.6-1.3-3.5-2.9-3.4-5.7
			C13.2,82.1,13.1,75.5,13.1,67.8z"/>
		<path class="st1" d="M69,73.5c3.2,4,5.8,7,8.1,10.2c2.5,3.5,5.1,4.1,8.8,1.8c8.5-5.1,17.3-10,25.9-14.9c1.4-0.8,2.9-1.5,5-2.7
			c0,7.6,0,14.7,0,21.7c0,1.6-1,2.3-2.2,3c-14.7,8.1-29.4,16.1-44.1,24.2c-0.4,0.2-0.9,0.2-1.6,0.3C69,103,69,88.9,69,73.5z"/>
	</g>
</g>
</svg>
