<svg id="Calque_1" data-name="Calque 1" xmlns="http://www.w3.org/2000/svg" viewBox="0 0 96 96"><defs><style>.cls-1{fill:#fff;}</style></defs><path d="M335.69,468.89h-76c-2.94-2.47-3.83-5.56-3.79-9.42.17-17.62.07-35.24.07-52.87v-3.91h83.45V407c0,17.5-.1,35,.08,52.49C339.52,463.33,338.61,466.41,335.69,468.89ZM294,436.94c-1.93-2.11-3.07-3.85-4.66-4.93-.94-.63-2.6-.21-3.93-.27.13,1.35-.19,3,.5,4,1.43,2,3.45,3.51,5.12,5.33,2,2.21,3.84,2.19,5.93,0,3.95-4.08,8.14-7.94,11.95-12.15,1-1.09,1.8-3.76,1.18-4.58-1.67-2.22-3.49-.45-4.88,1C301.54,429,298,432.74,294,436.94Z" transform="translate(-250 -372.89)"/><path class="cls-1" d="M335.69,468.89c2.92-2.48,3.83-5.56,3.8-9.43-.18-17.49-.08-35-.08-52.49v-4.28H256v3.91c0,17.63.1,35.25-.07,52.87,0,3.86.85,6.95,3.79,9.42H250v-96h96v96ZM337.54,397c-4.55-7.7-8.67-14.81-13-21.79a4.34,4.34,0,0,0-3.15-1.6c-6.91-.14-13.82-.07-20.84-.07V397Zm-79.23-.69c.69.61.88.91,1.06.91,11.27.06,22.54.12,33.81,0a2.85,2.85,0,0,0,2-1.91c.15-7.14.1-14.29.1-21.79-7.4,0-14.43-.11-21.45.1a5.16,5.16,0,0,0-3.55,2.23C266.2,382.65,262.3,389.51,258.31,396.35Z" transform="translate(-250 -372.89)"/><path class="cls-1" d="M294,436.94c4-4.2,7.59-7.95,11.21-11.63,1.39-1.42,3.21-3.19,4.88-1,.62.82-.2,3.49-1.18,4.58-3.81,4.21-8,8.07-11.95,12.15-2.09,2.16-3.91,2.18-5.93,0-1.67-1.82-3.69-3.35-5.12-5.33-.69-.95-.37-2.62-.5-4,1.33.06,3-.36,3.93.27C290.88,433.09,292,434.83,294,436.94Z" transform="translate(-250 -372.89)"/><path d="M337.54,397h-37V373.58c7,0,13.93-.07,20.84.07a4.34,4.34,0,0,1,3.15,1.6C328.87,382.23,333,389.34,337.54,397Z" transform="translate(-250 -372.89)"/><path d="M258.31,396.35c4-6.84,7.89-13.7,12-20.43a5.16,5.16,0,0,1,3.55-2.23c7-.21,14.05-.1,21.45-.1,0,7.5.05,14.65-.1,21.79a2.85,2.85,0,0,1-2,1.91c-11.27.09-22.54,0-33.81,0C259.19,397.26,259,397,258.31,396.35Z" transform="translate(-250 -372.89)"/></svg>