<svg id="Calque_1" data-name="Calque 1" xmlns="http://www.w3.org/2000/svg" viewBox="0 0 96 96"><defs><style>.cls-1{fill:#ff3b2f;}.cls-2{fill:#fff;}</style></defs><path class="cls-1" d="M85.69,96h-76c-2.94-2.47-3.83-5.56-3.79-9.42C6.07,69,6,51.34,6,33.71V29.8H89.42v4.31c0,17.5-.1,35,.08,52.49C89.52,90.44,88.61,93.52,85.69,96ZM44,64.05c-1.93-2.11-3.07-3.85-4.66-4.93-.94-.63-2.6-.21-3.93-.27.13,1.35-.19,3,.5,4,1.43,2,3.45,3.51,5.12,5.33,2,2.21,3.84,2.19,5.93,0C50.91,64.1,55.1,60.24,58.91,56c1-1.09,1.8-3.76,1.18-4.58-1.67-2.22-3.49-.45-4.88,1C51.54,56.11,48,59.85,44,64.05Z" transform="translate(0 0)"/><path class="cls-2" d="M85.69,96c2.92-2.48,3.83-5.56,3.8-9.43-.18-17.49-.08-35-.08-52.49V29.8H6v3.91C6,51.34,6.1,69,5.93,86.58c0,3.86.85,7,3.79,9.42H0V0H96V96Zm1.85-71.89C83,16.41,78.87,9.3,74.54,2.32A4.32,4.32,0,0,0,71.39.72C64.48.58,57.57.65,50.55.65V24.11ZM8.31,23.42c.69.61.88.91,1.06.91,11.27.06,22.54.12,33.81,0a2.85,2.85,0,0,0,2-1.91c.15-7.14.1-14.29.1-21.79-7.4,0-14.43-.11-21.45.1A5.16,5.16,0,0,0,20.28,3c-4.08,6.8-8,13.66-12,20.5Z" transform="translate(0 0)"/><path class="cls-2" d="M44,64.05c4-4.2,7.59-7.95,11.21-11.63,1.39-1.42,3.21-3.19,4.88-1,.62.82-.2,3.49-1.18,4.58-3.81,4.21-8,8.07-11.95,12.15-2.09,2.16-3.91,2.18-5.93,0-1.67-1.82-3.69-3.35-5.12-5.33-.69-1-.37-2.62-.5-4,1.33.06,3-.36,3.93.27C40.88,60.2,42,61.94,44,64.05Z" transform="translate(0 0)"/><path class="cls-1" d="M87.54,24.11h-37V.69c7,0,13.93-.07,20.84.07a4.32,4.32,0,0,1,3.15,1.6C78.87,9.34,83,16.45,87.54,24.11Z" transform="translate(0 0)"/><path class="cls-1" d="M8.31,23.46c4-6.84,7.89-13.7,12-20.43A5.16,5.16,0,0,1,23.86.8c7-.21,14-.1,21.45-.1,0,7.5,0,14.65-.1,21.79a2.85,2.85,0,0,1-2,1.91c-11.27.09-22.54,0-33.81,0C9.19,24.37,9,24.11,8.31,23.46Z" transform="translate(0 0)"/></svg>