<svg id="Calque_1" data-name="Calque 1" xmlns="http://www.w3.org/2000/svg" viewBox="0 0 83.6 95.33"><defs><style>.cls-1{fill:#f9f9f9;}</style></defs><path class="cls-1" d="M79.79,95.33h-76C.85,92.86,0,89.77,0,85.91.17,68.33.1,50.67.1,33V29.13H83.52v4.31c0,17.5-.1,35,.08,52.49C83.62,89.77,82.71,92.85,79.79,95.33ZM38.1,63.38c-1.93-2.11-3.07-3.85-4.66-4.93-.94-.63-2.6-.21-3.93-.27.13,1.35-.19,3,.5,4,1.43,2,3.45,3.51,5.12,5.33,2,2.21,3.84,2.19,5.93,0C45,63.43,49.2,59.57,53,55.33c1-1.09,1.8-3.76,1.18-4.58-1.67-2.22-3.49-.45-4.88,1C45.64,55.44,42.1,59.18,38.1,63.38Z" transform="translate(0 0)"/><path class="cls-1" d="M81.64,23.44h-37V0c7,0,13.93-.07,20.84.07a4.31,4.31,0,0,1,3.15,1.6C73,8.67,77.1,15.78,81.64,23.44Z" transform="translate(0 0)"/><path class="cls-1" d="M2.41,22.79c4-6.84,7.89-13.7,12-20.43A5.16,5.16,0,0,1,18,.13C25-.08,32,0,39.41,0c0,7.5,0,14.65-.1,21.79a2.85,2.85,0,0,1-2,1.91c-11.27.09-22.54,0-33.81,0C3.29,23.7,3.1,23.44,2.41,22.79Z" transform="translate(0 0)"/></svg>