<svg id="Calque_1" data-name="Calque 1" xmlns="http://www.w3.org/2000/svg" viewBox="0 0 43.58 44.8"><defs><style>.cls-1{fill:#ff3b2f;}</style></defs><path class="cls-1" d="M53.45,30.59a17,17,0,0,0,.14-2.19,14.2,14.2,0,0,0-.16-2.19l4.73-3.69a1.14,1.14,0,0,0,.28-1.42L54,13.35a1.13,1.13,0,0,0-1.37-.51L47,15.08a16.39,16.39,0,0,0-3.78-2.2L42.39,7a1.13,1.13,0,0,0-1.12-1h-9a1.12,1.12,0,0,0-1.1,1l-.84,5.92a16.91,16.91,0,0,0-3.78,2.2L21,12.84a1.11,1.11,0,0,0-1.38.51L15.18,21.1a1.06,1.06,0,0,0,.28,1.42l4.74,3.69A13.32,13.32,0,0,0,20,28.4a14.48,14.48,0,0,0,.16,2.19l-4.73,3.69a1.14,1.14,0,0,0-.28,1.42l4.48,7.75A1.13,1.13,0,0,0,21,44l5.58-2.24a16.39,16.39,0,0,0,3.78,2.2l.84,5.92a1.15,1.15,0,0,0,1.12,1h9a1.09,1.09,0,0,0,1.1-1l.84-5.92A16.18,16.18,0,0,0,47,41.72L52.56,44a1.11,1.11,0,0,0,1.38-.51l4.48-7.75a1.08,1.08,0,0,0-.28-1.42ZM36.79,36.8a8.4,8.4,0,1,1,8.4-8.4A8.42,8.42,0,0,1,36.79,36.8Z" transform="translate(-15 -6)"/></svg>