<svg id="Calque_1" data-name="Calque 1" xmlns="http://www.w3.org/2000/svg" viewBox="0 0 43.56 44.88"><defs><style>.cls-1{fill:#fff;}</style></defs><path class="cls-1" d="M38.45,24.59a17.89,17.89,0,0,0,.14-2.19,14.57,14.57,0,0,0-.16-2.19l4.73-3.69a1.14,1.14,0,0,0,.28-1.42L39,7.35a1.13,1.13,0,0,0-1.37-.51L32,9.08a16.45,16.45,0,0,0-3.78-2.2L27.39,1a1.13,1.13,0,0,0-1.12-1h-9a1.12,1.12,0,0,0-1.1,1l-.84,5.92a17.2,17.2,0,0,0-3.78,2.2L6,6.84a1.12,1.12,0,0,0-1.38.51L.18,15.1a1.07,1.07,0,0,0,.28,1.42L5.2,20.21A13.41,13.41,0,0,0,5,22.4a14.57,14.57,0,0,0,.16,2.19L.43,28.28A1.14,1.14,0,0,0,.15,29.7l4.48,7.75A1.13,1.13,0,0,0,6,38l5.58-2.24A16.45,16.45,0,0,0,15.36,38l.84,5.92a1.15,1.15,0,0,0,1.12,1h9a1.09,1.09,0,0,0,1.1-1L28.26,38A16.13,16.13,0,0,0,32,35.72L37.56,38a1.12,1.12,0,0,0,1.38-.51l4.48-7.75a1.09,1.09,0,0,0-.28-1.42ZM21.79,30.8a8.4,8.4,0,1,1,8.4-8.4A8.4,8.4,0,0,1,21.79,30.8Z" transform="translate(-0.01 0)"/></svg>