<svg id="Capa_1" data-name="Capa 1" xmlns="http://www.w3.org/2000/svg" viewBox="0 0 386 483.1"><defs><style>.cls-1{fill:#fff;}</style></defs><path class="cls-1" d="M434.55,418.7l-27.8-313.3a11.91,11.91,0,0,0-12-10.9h-58.6a94.6,94.6,0,0,0-189.2,0H88.35a12.05,12.05,0,0,0-12,10.9L48.55,418.7v1.1c0,34.9,32.1,63.3,71.5,63.3h243c39.4,0,71.5-28.4,71.5-63.3ZM241.55,24a70.7,70.7,0,0,1,70.6,70.5H171A70.7,70.7,0,0,1,241.55,24Zm121.5,435h-243c-26,0-47.2-17.3-47.5-38.8l26.8-301.7H147v42.1a12,12,0,0,0,24,0V118.5h141.2v42.1a12,12,0,1,0,24,0V118.5h47.6l26.8,301.8C410.25,441.7,389.05,459,363.05,459Z" transform="translate(-48.55 0)"/></svg>