<svg id="Layer_1" data-name="Layer 1" xmlns="http://www.w3.org/2000/svg" viewBox="0 0 502 502"><defs><style>.cls-1{fill:none;}.cls-2{fill:#feb72b;}</style></defs><path class="cls-1" d="M251,492A241,241,0,0,1,80.59,80.59,241,241,0,1,1,421.41,421.41,239.42,239.42,0,0,1,251,492Zm0-421.24C151.61,70.76,70.76,151.61,70.76,251S151.61,431.24,251,431.24,431.24,350.39,431.24,251,350.39,70.76,251,70.76Z" transform="translate(0 0)"/><path class="cls-2" d="M251,502A251,251,0,0,1,73.52,73.52a251,251,0,1,1,355,355A249.32,249.32,0,0,1,251,502Zm0-482A231,231,0,0,0,87.66,414.34,231,231,0,1,0,414.34,87.66,229.49,229.49,0,0,0,251,20Zm0,421.24C146.1,441.24,60.76,355.9,60.76,251S146.1,60.76,251,60.76,441.24,146.1,441.24,251,355.9,441.24,251,441.24Zm0-360.48C157.13,80.76,80.76,157.13,80.76,251S157.13,421.24,251,421.24,421.24,344.87,421.24,251,344.87,80.76,251,80.76Z" transform="translate(0 0)"/><path class="cls-2" d="M343,263a10,10,0,0,0,0-20H260V107a10,10,0,0,0-20,0V253a10,10,0,0,0,10,10Z" transform="translate(0 0)"/><path class="cls-2" d="M250,405a151.73,151.73,0,0,1-140.17-93.12,10,10,0,1,1,18.43-7.76A131.79,131.79,0,0,0,250,385a10,10,0,0,1,0,20Z" transform="translate(0 0)"/><path class="cls-2" d="M109.53,284a10,10,0,0,1-9.88-8.53A154.51,154.51,0,0,1,98,253a10,10,0,0,1,20,0,133.85,133.85,0,0,0,1.43,19.53A10,10,0,0,1,111,283.89,9.3,9.3,0,0,1,109.53,284Z" transform="translate(0 0)"/></svg>