<?xml version="1.0" encoding="utf-8"?>
<!-- Generator: Adobe Illustrator 26.0.0, SVG Export Plug-In . SVG Version: 6.00 Build 0)  -->
<svg version="1.1" id="Layer_1" xmlns="http://www.w3.org/2000/svg" xmlns:xlink="http://www.w3.org/1999/xlink" x="0px" y="0px"
	 viewBox="0 0 502 502" style="enable-background:new 0 0 502 502;" xml:space="preserve">
<style type="text/css">
	.st0{fill:none;}
</style>
<g>
	<g>
		<g>
			<path class="st0" d="M251,492c-64.4,0-124.9-25.1-170.4-70.6C35.1,375.9,10,315.4,10,251S35.1,126.1,80.6,80.6
				C126.1,35.1,186.6,10,251,10s124.9,25.1,170.4,70.6c45.5,45.5,70.6,106,70.6,170.4s-25.1,124.9-70.6,170.4
				C375.9,466.9,315.4,492,251,492z M251,70.8c-99.4,0-180.2,80.9-180.2,180.2S151.6,431.2,251,431.2S431.2,350.4,431.2,251
				S350.4,70.8,251,70.8z"/>
			<path d="M251,502c-67,0-130.1-26.1-177.5-73.5C26.1,381.1,0,318,0,251S26.1,120.9,73.5,73.5C120.9,26.1,184,0,251,0
				s130.1,26.1,177.5,73.5C475.9,120.9,502,184,502,251s-26.1,130.1-73.5,177.5C381.1,475.9,318,502,251,502z M251,20
				c-61.7,0-119.7,24-163.3,67.7C44,131.3,20,189.3,20,251s24,119.7,67.7,163.3C131.3,458,189.3,482,251,482s119.7-24,163.3-67.7
				C458,370.7,482,312.7,482,251s-24-119.7-67.7-163.3C370.7,44,312.7,20,251,20z M251,441.2c-104.9,0-190.2-85.3-190.2-190.2
				S146.1,60.8,251,60.8S441.2,146.1,441.2,251S355.9,441.2,251,441.2z M251,80.8c-93.9,0-170.2,76.4-170.2,170.2
				S157.1,421.2,251,421.2S421.2,344.9,421.2,251S344.9,80.8,251,80.8z"/>
		</g>
	</g>
	<path d="M343,263c5.5,0,10-4.5,10-10s-4.5-10-10-10h-83V107c0-5.5-4.5-10-10-10s-10,4.5-10,10v146c0,5.5,4.5,10,10,10H343z"/>
	<g>
		<path d="M250,405c-61.4,0-116.4-36.6-140.2-93.1c-2.1-5.1,0.2-11,5.3-13.1c5.1-2.1,11,0.2,13.1,5.3C148.9,353.3,196.7,385,250,385
			c5.5,0,10,4.5,10,10S255.5,405,250,405z"/>
	</g>
	<g>
		<path d="M109.5,284c-4.9,0-9.1-3.6-9.9-8.5c-1.1-7.4-1.7-14.9-1.7-22.5c0-5.5,4.5-10,10-10s10,4.5,10,10c0,6.5,0.5,13.1,1.4,19.5
			c0.8,5.5-3,10.5-8.4,11.4C110.5,284,110,284,109.5,284z"/>
	</g>
</g>
</svg>
